<?xml version="1.0" encoding="UTF-8"?>
<svg version="1.1" xmlns="http://www.w3.org/2000/svg" width="5625" height="4500">
<path d="M0 0 C1.22044006 -0.00696899 2.44088013 -0.01393799 3.69830322 -0.02111816 C7.6166127 -0.03841095 11.53477895 -0.04483844 15.453125 -0.046875 C16.12132263 -0.04746414 16.78952026 -0.04805328 17.47796631 -0.04866028 C38.70799916 -0.06186501 59.63131417 0.49508951 80.703125 3.203125 C81.8895459 3.34766113 83.0759668 3.49219727 84.29833984 3.64111328 C146.15581549 11.27502069 206.20808225 29.02664122 262.703125 55.203125 C264.3435376 55.96061035 264.3435376 55.96061035 266.01708984 56.73339844 C282.02166369 64.16727939 297.48464905 72.27655429 312.703125 81.203125 C314.36844954 82.16543389 316.03381306 83.12767532 317.69921875 84.08984375 C343.35946355 99.0613082 367.55524106 116.6104986 390.703125 135.203125 C391.33814941 135.71198242 391.97317383 136.22083984 392.62744141 136.74511719 C401.55834655 143.91337235 410.33523163 151.23856563 418.99414062 158.73242188 C420.69574488 160.19677388 422.40827896 161.64716295 424.125 163.09375 C431.98355496 169.73199096 439.52799182 176.64915107 447 183.71875 C450.02406079 186.57668741 453.09411479 189.37494107 456.203125 192.140625 C459.7826563 195.33107682 463.19492167 198.63471141 466.5234375 202.0859375 C468.40561301 203.91414382 470.32973959 205.61339373 472.3203125 207.3203125 C478.28511776 212.50212507 483.73983923 218.19494096 489.28125 223.8203125 C490.12171875 224.66851563 490.9621875 225.51671875 491.828125 226.390625 C492.57320312 227.14730469 493.31828125 227.90398437 494.0859375 228.68359375 C496.14815119 230.66885917 498.23368847 232.53893069 500.40234375 234.40234375 C505.29488923 238.65134362 509.83269949 243.2258223 514.390625 247.828125 C515.29256592 248.73385254 516.19450684 249.63958008 517.1237793 250.57275391 C520.46917944 253.93233806 523.81000892 257.29643762 527.1505127 260.66088867 C530.436043 263.96946851 533.72546291 267.27414981 537.015625 270.578125 C537.86793701 271.43873535 538.72024902 272.2993457 539.59838867 273.18603516 C543.92895441 277.53416477 548.33097065 281.7111349 552.9855957 285.71044922 C555.13313964 287.57684348 557.14669856 289.5492174 559.140625 291.578125 C559.89085938 292.33609375 560.64109375 293.0940625 561.4140625 293.875 C562.94010417 295.42708333 564.46614583 296.97916667 565.9921875 298.53125 C570.16738294 302.74948869 574.4056298 306.80058235 578.92773438 310.64648438 C580.76886809 312.26076773 582.48947043 313.95482781 584.203125 315.703125 C587.12779615 318.67369906 590.18932061 321.41041619 593.34765625 324.12890625 C595.71950885 326.21755257 598.03217975 328.35860605 600.34179688 330.51538086 C605.74571363 335.56066545 611.25534832 340.36099706 617.0234375 344.9921875 C619.83565815 347.3124745 622.52109763 349.73383634 625.203125 352.203125 C630.5329892 357.09574433 636.04710786 361.69349523 641.703125 366.203125 C643.22099609 367.41355469 643.22099609 367.41355469 644.76953125 368.6484375 C647.71720151 370.98719518 650.68454904 373.29993712 653.65673828 375.60742188 C655.0576659 376.69981783 656.45428394 377.79775686 657.84716797 378.90039062 C680.42410075 396.76667689 704.65359898 413.00562301 729.703125 427.203125 C730.53682617 427.67830566 731.37052734 428.15348633 732.22949219 428.64306641 C738.65754971 432.28563234 745.15225407 435.78672414 751.703125 439.203125 C752.7329248 439.74114746 753.76272461 440.27916992 754.82373047 440.83349609 C840.60379221 485.13519642 945.41307589 480.26649408 1104.3984375 444.484375 C1162.30138366 425.9136319 1220.28252771 399.82786704 1265.47265625 358.25 C1267.53608774 356.35641313 1269.63887081 354.52486336 1271.765625 352.703125 C1279.94172907 345.54492947 1286.94755777 337.69894568 1293.703125 329.203125 C1294.37214844 328.38972656 1295.04117188 327.57632812 1295.73046875 326.73828125 C1301.11861797 320.15513655 1305.93743121 313.2413487 1310.703125 306.203125 C1311.033125 306.863125 1311.363125 307.523125 1311.703125 308.203125 C1310.9342804 309.84403992 1310.9342804 309.84403992 1309.66137695 311.82299805 C1309.18814499 312.5662886 1308.71491302 313.30957916 1308.2273407 314.07539368 C1307.69985733 314.8845372 1307.17237396 315.69368073 1306.62890625 316.52734375 C1306.08607498 317.37246017 1305.54324371 318.2175766 1304.98396301 319.08830261 C1298.72320869 328.79892525 1292.31701994 338.41417256 1285.890625 348.015625 C1284.64636087 349.87757601 1283.40213924 351.73955544 1282.15795898 353.6015625 C1270.07897235 371.66757165 1257.94969183 389.66084676 1245.140625 407.22021484 C1243.82508339 409.03489367 1242.52517646 410.85907983 1241.234375 412.69140625 C1234.24102369 422.61848294 1226.85939073 432.23859305 1219.47705078 441.87841797 C1217.32332622 444.70084644 1215.19750804 447.54233266 1213.078125 450.390625 C1203.40126011 463.32377332 1193.36577613 475.9721456 1183.12695312 488.46337891 C1181.85086196 490.02260827 1180.58125119 491.587136 1179.3125 493.15234375 C1174.68241005 498.85668118 1169.93966438 504.45302572 1165.13989258 510.0144043 C1162.1338401 513.50516545 1159.20504713 517.04179862 1156.328125 520.640625 C1152.06744623 525.89649881 1147.48997121 530.81819003 1142.83837891 535.72631836 C1139.9681934 538.75714551 1137.14925256 541.81419485 1134.41674805 544.97021484 C1123.63564974 557.32354926 1112.09056805 568.97946625 1100.48461914 580.55200195 C1098.2392092 582.79197686 1095.99929661 585.03735196 1093.75976562 587.28320312 C1092.30500854 588.73730042 1090.84994182 590.19108803 1089.39453125 591.64453125 C1088.73916885 592.30191788 1088.08380646 592.9593045 1087.40858459 593.63661194 C1083.54957486 597.47636492 1079.58095096 601.13491314 1075.45623779 604.68812561 C1073.05221429 606.76562693 1070.72434354 608.92224816 1068.390625 611.078125 C1063.95816026 615.11591822 1059.42570323 618.97619934 1054.7578125 622.73828125 C1052.5200092 624.54397675 1050.29830601 626.36291812 1048.0859375 628.19921875 C982.73873752 682.24138602 909.65934736 708.12421873 824.68896484 700.60107422 C747.48220165 693.14167811 674.69244259 662.02264465 570.06640625 610.91015625 C569.26658829 610.51176544 568.46677032 610.11337463 567.64271545 609.70291138 C562.16490399 606.96380891 556.73713425 604.13800597 551.328125 601.265625 C544.49996292 597.64650925 537.62493126 594.13992713 530.703125 590.703125 C523.8647422 587.30767799 517.06994613 583.84901204 510.328125 580.265625 C503.17474279 576.46425211 495.95767963 572.80749922 488.703125 569.203125 C480.72204952 565.23775225 472.80259339 561.18123227 464.93457031 556.99658203 C457.4642895 553.04033395 449.89730894 549.28477493 442.32641602 545.52563477 C436.88054028 542.81471918 431.4844171 540.04731503 426.140625 537.140625 C417.32099367 532.36347852 408.2448604 528.1230537 399.17529297 523.84570312 C396.08734871 522.38488967 393.00447727 520.91412395 389.92324829 519.4392395 C317.45701041 484.77313196 236.40961696 449.75644632 141.453125 447.890625 C140.51535217 447.89278015 139.57757935 447.8949353 138.61138916 447.89715576 C124.13958719 447.95035074 109.94238024 448.38915286 95.703125 451.203125 C94.69765625 451.40180176 93.6921875 451.60047852 92.65625 451.80517578 C51.37031769 460.28989247 16.04236242 479.18298486 -14.296875 508.203125 C-15.245625 509.110625 -16.194375 510.018125 -17.171875 510.953125 C-23.37242468 517.01588468 -29.00640113 523.33815238 -34.296875 530.203125 C-34.80057617 530.84685059 -35.30427734 531.49057617 -35.82324219 532.15380859 C-56.68182253 558.94470225 -72.15030972 589.46050237 -83.33544922 621.45507812 C-84.22155137 623.98782718 -85.13359467 626.50963869 -86.05078125 629.03125 C-103.70372552 678.61742795 -111.48491566 731.5211189 -116.484375 783.703125 C-116.60286804 784.91619827 -116.60286804 784.91619827 -116.72375488 786.15377808 C-120.00657167 820.22800712 -120.67302354 854.29087905 -120.61493301 888.50107574 C-120.60928791 891.8802546 -120.6064698 895.25942841 -120.60385132 898.63861084 C-120.56582032 932.43571961 -120.06436339 966.08956994 -117.55010986 999.80700684 C-117.28628093 1003.34520143 -117.03133753 1006.8839733 -116.77685547 1010.42285156 C-110.23774556 1100.23116696 -98.12169481 1189.59223144 -52.296875 1416.203125 C-52.02723938 1417.32527405 -51.75760376 1418.4474231 -51.47979736 1419.60357666 C-24.29659231 1563.5782927 -24.29659231 1563.5782927 54.6328125 1679.36328125 C67.96430143 1687.3519979 81.83339604 1689.33741693 97.078125 1685.703125 C127.68339843 1676.65488545 153.38253926 1651.92960929 173.703125 1628.203125 C174.71650804 1627.04084652 175.73092674 1625.87947063 176.74609375 1624.71875 C182.90065182 1617.6730342 188.95177192 1610.58454072 194.703125 1603.203125 C195.71482658 1601.91144488 196.72654704 1600.61977956 197.73828125 1599.328125 C214.65849371 1577.73877153 214.65849371 1577.73877153 230.8347168 1555.59326172 C236.00408508 1548.28687809 241.50321092 1541.22489589 246.9453125 1534.12109375 C249.79426936 1530.40142708 252.60503261 1526.65785604 255.390625 1522.890625 C263.03655671 1512.67168377 271.11151279 1502.75442186 279.73828125 1493.34765625 C281.53250931 1491.38934372 283.28007736 1489.40086363 285.015625 1487.390625 C294.12832563 1476.99358401 303.69179634 1467.11088883 313.453125 1457.328125 C313.99628357 1456.78237823 314.53944214 1456.23663147 315.09906006 1455.67434692 C321.1212125 1449.62960772 327.21188459 1443.74792258 333.703125 1438.203125 C335.47882721 1436.58344683 337.25020807 1434.95900782 339.015625 1433.328125 C344.41805816 1428.40805195 349.99227257 1423.75957487 355.703125 1419.203125 C356.21149902 1418.79513672 356.71987305 1418.38714844 357.24365234 1417.96679688 C421.56801821 1366.41285421 495.68821613 1330.1209689 577.703125 1318.203125 C578.80027832 1318.03796387 579.89743164 1317.87280273 581.02783203 1317.70263672 C617.39898761 1312.45559697 656.34859656 1313.03982497 692.703125 1318.203125 C693.74307617 1318.34234375 694.78302734 1318.4815625 695.85449219 1318.625 C768.18794514 1328.49800211 840.27372291 1365.81498894 885.78515625 1423.79296875 C887.56811838 1426.0334731 889.4377868 1428.11109078 891.390625 1430.203125 C907.66951843 1448.38768255 920.77268514 1469.98875674 932.703125 1491.203125 C933.22487305 1492.12770508 933.74662109 1493.05228516 934.28417969 1494.00488281 C976.9516729 1570.10714567 997.88366107 1656.63311023 1029.078125 1911.015625 C1029.16370667 1912.16920502 1029.24928833 1913.32278503 1029.33746338 1914.51132202 C1029.57699008 1917.76889108 1029.80956362 1921.02686686 1030.0390625 1924.28515625 C1030.10748352 1925.21977692 1030.17590454 1926.15439758 1030.24639893 1927.11734009 C1030.70395154 1933.81926909 1030.77308714 1940.48689643 1030.703125 1947.203125 C1028.23372837 1944.77391292 1026.10007369 1942.53814006 1024.29296875 1939.578125 C1023.8664502 1938.88283691 1023.43993164 1938.18754883 1023.00048828 1937.47119141 C1022.5517334 1936.72272949 1022.10297852 1935.97426758 1021.640625 1935.203125 C1021.16093262 1934.40696777 1020.68124023 1933.61081055 1020.18701172 1932.79052734 C1005.07679743 1907.51804031 993.28173833 1880.90542122 981.53482056 1853.96081543 C975.86222837 1840.9598056 969.94488339 1828.13273148 963.7109375 1815.390625 C960.61471288 1809.0580751 957.64554362 1802.67084422 954.703125 1796.265625 C954.21408691 1795.20166504 953.72504883 1794.13770508 953.22119141 1793.04150391 C952.22520188 1790.87322325 951.22960004 1788.70476447 950.234375 1786.53613281 C945.42804395 1776.0743931 940.58125692 1765.6315665 935.703125 1755.203125 C935.19249512 1754.1104834 934.68186523 1753.0178418 934.15576172 1751.89208984 C927.61064582 1737.93296288 920.66965453 1724.2853238 913.15576172 1710.82324219 C911.72580267 1708.24402865 910.32177635 1705.65241783 908.92578125 1703.0546875 C902.66750153 1691.44319568 895.89729277 1680.25738352 888.703125 1669.203125 C887.67445313 1667.60791016 887.67445313 1667.60791016 886.625 1665.98046875 C873.35947455 1645.71988682 858.5143383 1626.64299072 841.703125 1609.203125 C841.14093262 1608.61901855 840.57874023 1608.03491211 839.99951172 1607.43310547 C832.62422553 1599.8135371 825.09492654 1592.71153926 816.703125 1586.203125 C815.73375 1585.41679687 814.764375 1584.63046875 813.765625 1583.8203125 C778.97481489 1556.07464144 734.46057591 1539.04985845 689.703125 1542.203125 C666.4435155 1544.99057915 644.47295774 1557.45552724 626.703125 1572.203125 C625.69507812 1573.00878906 624.68703125 1573.81445312 623.6484375 1574.64453125 C610.92224531 1584.94725719 598.8327579 1596.67716342 588.75390625 1609.59375 C586.84899255 1612.01752591 584.86138155 1614.34722683 582.83642578 1616.67089844 C576.17511042 1624.3503393 570.25511977 1632.50155343 564.39892578 1640.80419922 C562.70784097 1643.19645366 561.00157724 1645.57727081 559.29296875 1647.95703125 C529.96470456 1689.03735715 505.74940329 1734.01462592 482.53515625 1778.7578125 C480.35177599 1782.96497569 478.14250295 1787.15754186 475.9206543 1791.34448242 C471.25189417 1800.14931277 466.74909643 1809.02881437 462.33984375 1817.96655273 C459.7413857 1823.21150372 457.07232957 1828.4110906 454.32496643 1833.57917786 C448.43237389 1844.67143391 442.87686865 1855.91294547 437.37841797 1867.20489502 C434.55858115 1872.99343606 431.72729118 1878.77636837 428.89453125 1884.55859375 C428.60231815 1885.15517792 428.31010506 1885.75176208 428.00903702 1886.36642456 C421.1397422 1900.38662744 414.18258114 1914.36249783 407.203125 1928.328125 C406.64521271 1929.44635651 406.08730042 1930.56458801 405.51248169 1931.71670532 C399.46047186 1943.84323814 393.32895186 1955.91698123 386.98144531 1967.89160156 C384.83953926 1971.93422122 382.73564624 1975.99531981 380.6484375 1980.06640625 C380.17580978 1980.98789963 380.17580978 1980.98789963 379.69363403 1981.92800903 C379.0616009 1983.1606008 378.42965307 1984.3932363 377.79779053 1985.62591553 C370.96959885 1998.93287358 363.96612264 2012.12740508 356.703125 2025.203125 C355.88013916 2026.69054199 355.88013916 2026.69054199 355.04052734 2028.20800781 C332.82856376 2068.32355298 309.26226608 2108.21262087 280.703125 2144.203125 C280.20699707 2144.8307373 279.71086914 2145.45834961 279.19970703 2146.10498047 C271.74255385 2155.50847587 264.03941799 2164.56836357 255.703125 2173.203125 C254.68726318 2174.25983398 254.68726318 2174.25983398 253.65087891 2175.33789062 C244.23279735 2185.08690588 234.75812802 2194.32905743 223.703125 2202.203125 C223.10967285 2202.63028809 222.5162207 2203.05745117 221.90478516 2203.49755859 C209.90305206 2212.05656347 197.3702153 2218.84027838 183.390625 2223.578125 C182.68639404 2223.81692383 181.98216309 2224.05572266 181.2565918 2224.30175781 C152.96004186 2233.37608941 124.25740227 2228.11207338 98.31762695 2215.0793457 C73.63859099 2202.31222751 51.67737758 2182.19040258 33.703125 2161.203125 C32.80931802 2160.18426001 31.91472437 2159.16608482 31.01953125 2158.1484375 C11.53185175 2135.87911144 -4.74047822 2111.02885383 -20.49951172 2086.04541016 C-22.08888221 2083.53203726 -23.69076668 2081.02751845 -25.30078125 2078.52734375 C-45.17769988 2047.56072657 -63.39838019 2015.4076675 -80.78955078 1982.99560547 C-82.2236558 1980.33877145 -83.67548281 1977.69277292 -85.13671875 1975.05078125 C-106.06571254 1937.17926868 -125.6430254 1898.30952451 -143.58300781 1858.93847656 C-145.47878406 1854.79262782 -147.41597875 1850.66643469 -149.3515625 1846.5390625 C-160.7245665 1822.23860945 -171.39472512 1797.66474089 -181.85595703 1772.95947266 C-183.72136929 1768.55540498 -185.59845617 1764.15651581 -187.48313904 1759.76066589 C-230.42550279 1659.56313115 -266.32877006 1555.94393322 -399.95506287 1009.24153137 C-400.29940562 1007.18803357 -400.64476785 1005.13470937 -400.99035645 1003.0814209 C-413.46819245 928.89744737 -424.56785158 854.39158184 -438.2578125 716.53125 C-438.32078522 715.75054138 -438.38375793 714.96983276 -438.44863892 714.16546631 C-441.38457787 676.47366682 -442.6424866 638.77584096 -442.55761719 600.97607422 C-442.5461781 595.83747213 -442.55304793 590.69907631 -442.56449509 585.56048107 C-442.61206242 560.37609712 -442.05692758 535.3282198 -440.296875 510.203125 C-440.22126343 509.11483398 -440.14565186 508.02654297 -440.06774902 506.90527344 C-439.63232719 500.80986621 -439.11966716 494.72456217 -438.546875 488.640625 C-438.46417358 487.74821106 -438.38147217 486.85579712 -438.29626465 485.93634033 C-432.74173369 426.57115889 -422.06070881 367.87279974 -403.296875 311.203125 C-402.72549805 309.44863037 -402.72549805 309.44863037 -402.14257812 307.65869141 C-384.01048424 252.16875183 -357.91084272 198.88865221 -321.296875 153.203125 C-320.50152344 152.19636719 -319.70617188 151.18960937 -318.88671875 150.15234375 C-314.15299497 144.24979929 -309.13454909 138.65368536 -303.98828125 133.11328125 C-301.53683734 130.46259081 -299.13059923 127.77863167 -296.734375 125.078125 C-289.71585514 117.27002166 -282.28149201 110.01192512 -274.296875 103.203125 C-273.3378125 102.35492187 -272.37875 101.50671875 -271.390625 100.6328125 C-256.98910464 87.95930156 -241.52849789 76.43000882 -225.296875 66.203125 C-224.58724609 65.75437012 -223.87761719 65.30561523 -223.14648438 64.84326172 C-157.11155409 23.40818831 -78.05766131 0.30269438 0 0 Z " fill="#FFFFFF" transform="translate(2134.296875,1225.796875)"/>
<path d="M0 0 C63.42254873 -1.01313976 125.92191163 18.98158539 175.23046875 59.12890625 C175.77058594 59.56605957 176.31070313 60.00321289 176.8671875 60.45361328 C186.68573044 68.46121867 195.60051058 77.29452112 204.46679688 86.33276367 C207.43081383 89.3513507 210.42614036 92.33736754 213.44140625 95.3046875 C218.26981741 100.07208985 222.88339632 104.91925167 227.23046875 110.12890625 C227.85429443 110.86608887 227.85429443 110.86608887 228.49072266 111.61816406 C242.80486136 128.61336366 254.06275818 147.42043861 264.23046875 167.12890625 C264.63217285 167.90492188 265.03387695 168.6809375 265.44775391 169.48046875 C272.95680769 184.17223483 278.67269589 199.61819396 284.23046875 215.12890625 C284.76969971 216.63106689 284.76969971 216.63106689 285.31982422 218.16357422 C310.98722699 290.93172584 318.92136584 370.40552462 322.14190674 447.03704834 C322.22659352 449.03737234 322.31606305 451.03749213 322.40576172 453.03759766 C326.11317645 538.61617093 321.6675753 624.69514181 260.13020706 1088.56913757 C258.40119648 1097.70075207 256.74669902 1106.83772551 255.22596741 1116.00640869 C254.44356737 1120.69225088 253.61830776 1125.36990403 252.78469849 1130.046875 C252.42172934 1132.14718346 252.0790263 1134.25111889 251.75900269 1136.35839844 C249.14783164 1153.48501589 249.14783164 1153.48501589 242.39280701 1158.78643799 C239.98548352 1160.41492094 237.5230163 1161.85636549 234.95245361 1163.21099854 C232.53653401 1164.49880964 230.28797096 1166.01494288 228.0078125 1167.52734375 C226.39841729 1168.52582234 224.78508183 1169.51797637 223.16796875 1170.50390625 C222.27932129 1171.04861572 221.39067383 1171.5933252 220.47509766 1172.15454102 C163.97851609 1206.58292289 98.65745468 1237.29544181 33.23046875 1250.12890625 C33.77558047 1239.70720416 34.68432067 1229.41189131 36.03369141 1219.05786133 C36.21715522 1217.62032606 36.40014926 1216.18273077 36.58272076 1214.7450819 C36.97509507 1211.66292138 37.37061098 1208.58118717 37.76867104 1205.49975586 C38.4111658 1200.52549522 39.04616613 1195.5502936 39.68022156 1190.57495117 C40.59248198 1183.42135107 41.50766591 1176.26813078 42.42471313 1169.11514282 C44.84171719 1150.25730079 47.23392842 1131.39630106 49.625 1112.53515625 C49.74504166 1111.58857533 49.86508333 1110.6419944 49.98876262 1109.66672921 C57.02392067 1054.18845173 63.78698858 998.67925975 70.23046875 943.12890625 C70.40129345 941.65838177 70.40129345 941.65838177 70.57556915 940.15814972 C78.33821769 873.30111588 83.29961375 806.38878053 86.10479736 739.14141846 C86.21709564 736.44947762 86.33259487 733.7576952 86.44873047 731.06591797 C90.1657784 642.94167038 87.54658394 552.94281371 11.23046875 322.12890625 C-9.10689988 300.02854592 -35.81774695 286.26755533 -64.76953125 279.12890625 C-65.62063477 278.91717773 -66.47173828 278.70544922 -67.34863281 278.48730469 C-144.26055185 260.37180603 -223.52161133 295.79661601 -287.76953125 335.12890625 C-288.79643066 335.75410156 -289.82333008 336.37929687 -290.88134766 337.0234375 C-303.26869641 344.56857739 -315.57025197 352.23962651 -327.79296875 360.04833984 C-350.35630721 374.45422679 -373.22484658 388.37897192 -396.76953125 401.12890625 C-397.60436035 401.58587891 -398.43918945 402.04285156 -399.29931641 402.51367188 C-479.93426977 446.49907917 -572.14368162 465.08845125 -768.48242188 446.95483398 C-776.41175611 444.61910569 -784.25877675 442.04680179 -792.08203125 439.37890625 C-793.19215576 439.00209717 -794.30228027 438.62528809 -795.44604492 438.23706055 C-796.47705322 437.87652588 -797.50806152 437.51599121 -798.5703125 437.14453125 C-799.93410034 436.66935059 -799.93410034 436.66935059 -801.32543945 436.18457031 C-803.80662972 435.1128825 -805.68651361 433.83758185 -807.76953125 432.12890625 C-794.80753179 427.27940408 -781.77246758 422.68216759 -768.68161011 418.19348145 C-734.65890408 406.50811044 -700.92937567 394.08989906 -667.76953125 380.12890625 C-667.12514099 379.85773987 -666.48075073 379.58657349 -665.8168335 379.30718994 C-612.08583632 356.64748829 -559.99909621 329.51177239 -512.76953125 295.12890625 C-511.60744141 294.28561768 -511.60744141 294.28561768 -510.421875 293.42529297 C-491.07926284 279.36464212 -472.51579445 264.4504625 -454.30053711 248.9609375 C-450.1059165 245.39811226 -445.85016137 241.91546565 -441.58203125 238.44140625 C-438.45153459 235.86744233 -435.35780664 233.25321539 -432.26953125 230.62890625 C-427.42133 226.50907326 -422.5210728 222.46094661 -417.5859375 218.4453125 C-414.43167678 215.85103149 -411.31759298 213.21273883 -408.20703125 210.56640625 C-403.7337568 206.76438289 -399.20607637 203.05007471 -394.60546875 199.40234375 C-390.92285369 196.45016473 -387.28425358 193.44620331 -383.64453125 190.44140625 C-371.36787244 180.31428299 -359.03532965 170.27120018 -346.49169922 160.47607422 C-344.14795014 158.64267368 -341.81140504 156.80019176 -339.47436523 154.95825195 C-326.09246498 144.41947403 -312.52243758 134.17836127 -298.76953125 124.12890625 C-298.00946777 123.57267578 -297.2494043 123.01644531 -296.46630859 122.44335938 C-269.80463934 102.95827239 -242.29657759 84.77154487 -213.76953125 68.12890625 C-212.7832373 67.55317871 -211.79694336 66.97745117 -210.78076172 66.38427734 C-145.56976193 28.56470131 -75.9501684 2.59725964 0 0 Z " fill="#F2D260" transform="translate(3739.76953125,1134.87109375)"/>
<path d="M0 0 C16.48436443 11.4122523 30.01581504 27.32253836 34.25 47.3125 C38.09041104 72.0156845 29.19861203 96.24133802 14.8125 116.125 C4.07366921 129.95223735 -9.3464091 142.13857295 -23 153 C-24.40906109 154.14528136 -25.81675287 155.29225081 -27.22265625 156.44140625 C-28.50243592 157.4819778 -29.78238288 158.52234362 -31.0625 159.5625 C-32.08754639 160.3963623 -32.08754639 160.3963623 -33.13330078 161.24707031 C-36.85980365 164.27512913 -40.60527435 167.27577551 -44.375 170.25 C-47.85281458 173.03580045 -51.26324107 175.88739411 -54.625 178.8125 C-55.46289062 179.54082031 -56.30078125 180.26914063 -57.1640625 181.01953125 C-59.33992029 182.91658976 -59.33992029 182.91658976 -59 186 C-57.81763394 188.61704844 -56.59053663 191.18055162 -55.3125 193.75 C-41.63544945 222.09116699 -37.16436713 256.26020952 -45 287 C-45.16097168 287.6717627 -45.32194336 288.34352539 -45.48779297 289.03564453 C-53.89680897 323.66528103 -76.93788186 354.10649299 -107 373 C-112.90982898 376.49757956 -118.94034087 379.77092994 -125 383 C-124.50371094 383.58265625 -124.00742188 384.1653125 -123.49609375 384.765625 C-105.2711362 406.76007093 -99.13528648 431.85093332 -101 460 C-104.76237258 497.21916961 -139.87378032 544.51840403 -166 570 C-165.52949219 570.68964844 -165.05898437 571.37929687 -164.57421875 572.08984375 C-155.57599602 585.67101221 -152.8507389 599.99519587 -155.61328125 616.109375 C-160.18951181 638.19206384 -174.28025237 655.51498889 -189.50878906 671.43212891 C-191.99762075 674.04890643 -194.43287383 676.71471864 -196.875 679.375 C-200.08025036 682.85772454 -203.3005877 686.32476046 -206.55078125 689.765625 C-212.58575123 696.16364944 -218.44112184 702.5905163 -223.93359375 709.46875 C-226.00112782 712.00138153 -228.16113341 714.4073116 -230.375 716.8125 C-234.89533573 721.77938536 -239.00940493 727.0049979 -243.12109375 732.30859375 C-245.02387011 734.76113309 -246.95201482 737.18909646 -248.91015625 739.59765625 C-256.66061967 749.13274053 -263.90104747 758.97242321 -271 769 C-271.58072266 769.81694336 -272.16144531 770.63388672 -272.75976562 771.47558594 C-279.7838136 781.36682727 -286.59996664 791.35476483 -293.1484375 801.56640625 C-310.52477939 828.64361279 -310.52477939 828.64361279 -319 838 C-319.71285156 838.7940625 -320.42570312 839.588125 -321.16015625 840.40625 C-330.96453485 850.78125381 -342.6818556 857.65360445 -357.125 858.25 C-372.66048714 857.96327121 -384.49358927 849.86476892 -395 839 C-404.46885196 828.31392641 -411.70503733 816.22259357 -419 804 C-419.62567871 802.95585937 -420.25135742 801.91171875 -420.89599609 800.8359375 C-444.58214192 761.26655758 -467.2025537 721.08259779 -488.29516602 680.06835938 C-491.12263459 674.57695667 -493.99399975 669.145517 -497.13256836 663.82446289 C-498 662 -498 662 -498 659 C-496.69869141 659.31130859 -496.69869141 659.31130859 -495.37109375 659.62890625 C-491.59094823 660.52886915 -487.80700809 661.4122079 -484.02246094 662.29345703 C-481.87129182 662.79632322 -479.72098966 663.30290433 -477.57128906 663.81201172 C-413.20814509 679.02093573 -345.47503536 684.81830995 -286.66796875 648.96875 C-260.20723304 631.84909558 -240.9022346 608.98749221 -231 579 C-239.07445324 578.22793678 -247.13374747 577.85701575 -255.23828125 577.60546875 C-291.79223714 576.45704925 -328.14193744 574.68506909 -364 567 C-365.02399902 566.78118164 -366.04799805 566.56236328 -367.10302734 566.33691406 C-409.7394966 556.97686075 -465.00540461 535.49195899 -490.625 497.375 C-491.07875 496.59125 -491.5325 495.8075 -492 495 C-487.29590878 495.60865485 -482.77660455 496.47286498 -478.1796875 497.63671875 C-476.84579503 497.96823014 -475.51163467 498.29866503 -474.17724609 498.62817383 C-473.47815125 498.80103912 -472.7790564 498.97390442 -472.05877686 499.15200806 C-423.73886989 511.00070991 -373.89662648 515.93460772 -324.19628906 513.25537109 C-321.73797271 513.12435902 -319.27925971 513.00522811 -316.8203125 512.88671875 C-308.72306055 512.47391727 -300.81727274 511.81262909 -292.81201172 510.45507812 C-289.53419491 509.92461706 -286.27452325 509.6271496 -282.96630859 509.36816406 C-253.34325422 507.01964679 -218.11889689 499.48097884 -197.54296875 476.22265625 C-185.25950201 460.72063604 -179.10863192 441.78132293 -181 422 C-182.1172489 415.54144194 -183.92929485 409.21211546 -186 403 C-192.93848244 404.0675249 -199.81980014 405.34047234 -206.69140625 406.76953125 C-243.22839 414.351454 -279.64458015 419.86980834 -317 421 C-318.03858154 421.03504639 -318.03858154 421.03504639 -319.09814453 421.07080078 C-392.10675163 423.26087495 -465.43143234 401.4601657 -519.21484375 351.00390625 C-526.54546768 343.97683505 -533.17465987 336.32519082 -539 328 C-539 327.34 -539 326.68 -539 326 C-537.60322021 326.22550537 -537.60322021 326.22550537 -536.17822266 326.45556641 C-494.10735677 333.23290502 -452.09935474 339.97781876 -409.5 342.1875 C-408.2554454 342.25209412 -408.2554454 342.25209412 -406.98574829 342.31799316 C-331.99418932 346.12032426 -253.51207336 331.36694771 -196 280 C-195.12085937 279.24203125 -194.24171875 278.4840625 -193.3359375 277.703125 C-175.88269249 262.46530738 -160.76363714 242.57202988 -152 221 C-152.64469238 221.06993164 -153.28938477 221.13986328 -153.95361328 221.21191406 C-173.69249607 223.30313959 -193.47220259 224.71187906 -213.27773285 225.99302673 C-215.28021574 226.12290607 -217.28259551 226.25437218 -219.28497314 226.38586426 C-243.14398046 227.9452765 -267.02068542 229.22116458 -290.9375 229.1875 C-292.0768399 229.18709213 -292.0768399 229.18709213 -293.23919678 229.18667603 C-372.96713411 229.05854221 -461.16647306 217.95781774 -520.53515625 159.50390625 C-524.89557691 154.82049147 -528.74379828 149.79613587 -532.5 144.625 C-532.9340918 144.02961426 -533.36818359 143.43422852 -533.81542969 142.82080078 C-535.8821067 139.89840328 -537.2710698 137.49263317 -538 134 C-528.09861086 134.55478609 -518.24161977 135.29539386 -508.37461853 136.31071472 C-505.46132604 136.61010811 -502.54725739 136.90162965 -499.63323593 137.19382858 C-498.08835635 137.34879131 -496.54350843 137.50406993 -494.99869156 137.65965652 C-464.70079193 140.71086547 -434.4224546 143.51571995 -404 145 C-402.91241394 145.05320404 -402.91241394 145.05320404 -401.80285645 145.10748291 C-392.53790158 145.55192626 -383.27428486 145.84200537 -374 146 C-372.27426758 146.03287109 -372.27426758 146.03287109 -370.51367188 146.06640625 C-329.94585347 146.73991735 -289.49184699 143.92113476 -249.4375 137.5 C-248.23706055 137.31074951 -247.03662109 137.12149902 -245.79980469 136.92651367 C-239.49061593 135.85416722 -233.7531517 134.33386086 -227.79077148 132.02197266 C-222.57805279 130.11308976 -217.17800955 128.84323757 -211.8125 127.4375 C-186.48246245 120.59556289 -161.91306968 111.81879904 -138 101 C-136.9579541 100.52981445 -135.9159082 100.05962891 -134.84228516 99.57519531 C-96.92521416 82.3034871 -62.20469428 59.19443881 -31.3984375 31.1796875 C-29.7662636 29.69637637 -28.12525082 28.22274608 -26.4765625 26.7578125 C-18.68626605 19.8304412 -11.27258789 12.66782057 -4.5078125 4.7265625 C-3.06727105 3.07703058 -1.56673075 1.52920426 0 0 Z " fill="#E7BC35" transform="translate(4028,2339)"/>
<path d="M0 0 C12.60907097 3.87061088 25.21544567 7.74891129 37.8046875 11.68359375 C125.98253585 39.1883288 215.27791254 63.51243381 306.62231445 77.83105469 C307.5048288 77.97017776 308.38734314 78.10930084 309.29660034 78.25263977 C310.9518886 78.51278998 312.60765258 78.76993692 314.26394653 79.02360535 C319.77819591 79.88909795 319.77819591 79.88909795 322 81 C322.01417969 80.34515625 322.02835938 79.6903125 322.04296875 79.015625 C322.87690983 63.05804969 331.68344209 48.88884549 343 38 C356.79805136 26.32787063 371.9600788 21.52459317 389.87426758 21.59594727 C391.10038254 21.58908401 392.3264975 21.58222076 393.58976746 21.57514954 C396.9165958 21.56010532 400.24285798 21.55835406 403.56967759 21.56409192 C406.36487889 21.56720974 409.16003094 21.56106261 411.95522517 21.55505317 C418.55979243 21.54106463 425.1642302 21.54252075 431.76879883 21.55395508 C438.54104029 21.56542195 445.31288504 21.551372 452.08507425 21.5245586 C457.93691027 21.50227231 463.78862297 21.49579332 469.64049834 21.50163502 C473.11901371 21.50497621 476.59727523 21.50278236 480.07575417 21.48538399 C505.46513144 21.37055649 523.92249351 24.02325359 543.12109375 41.984375 C553.097572 52.33035245 559.14213751 65.95956084 560.52954102 80.1784668 C560.61808853 81.08082565 560.70663605 81.98318451 560.79786682 82.91288757 C560.86457077 83.60163467 560.93127472 84.29038177 561 85 C649.74094717 72.29186673 735.94906513 52.03743646 881 0 C881 3.82919183 880.07648123 4.36585778 877.5 7.125 C876.68015625 8.00671875 875.8603125 8.8884375 875.015625 9.796875 C874.30696289 10.54807617 874.30696289 10.54807617 873.58398438 11.31445312 C871.80892024 13.20333148 870.05299922 15.10912929 868.296875 17.015625 C860.69389176 25.22960383 852.92216139 33.10097247 844.58544922 40.56738281 C842.93747877 42.05649439 841.31222592 43.56734025 839.69140625 45.0859375 C833.00666823 51.34618532 826.16272344 57.28516309 819 63 C817.87030792 63.92091185 816.74144468 64.84284111 815.61328125 65.765625 C786.94922011 89.11034254 755.65286623 108.75798447 723 126 C722.13745605 126.45729492 721.27491211 126.91458984 720.38623047 127.38574219 C675.06422939 151.23581209 612.63567879 180 561 180 C560.92523437 180.83660156 560.85046875 181.67320312 560.7734375 182.53515625 C558.66483319 201.20250617 550.51551209 216.75394104 536 229 C521.04306592 240.14714898 505.0208427 243.15345501 486.7355957 243.14526367 C485.64486252 243.14862228 484.55412933 243.1519809 483.43034363 243.15544128 C479.84547772 243.16489413 476.26065882 243.16689163 472.67578125 243.16796875 C470.16627483 243.17118558 467.6567686 243.17454997 465.14726257 243.17805481 C459.89284972 243.18403215 454.63844864 243.18593922 449.3840332 243.18530273 C444.01193271 243.18476939 438.63990426 243.19179724 433.26782227 243.20581055 C426.75406148 243.22255468 420.24036522 243.22935589 413.72658348 243.22869301 C411.25687482 243.22986615 408.78716535 243.23425016 406.31746864 243.24202538 C383.90046309 243.30598667 364.90731584 242.5400778 346 229 C345.36578125 228.55140625 344.7315625 228.1028125 344.078125 227.640625 C331.34610542 217.71198588 323.69899345 201.63086133 321 186 C320.6212622 182.67049903 320.29789317 179.33763615 320 176 C319.30479248 175.84031738 318.60958496 175.68063477 317.89331055 175.51611328 C263.52047314 162.93287442 211.91433851 145.01416536 162 120 C160.91493164 119.45875488 159.82986328 118.91750977 158.71191406 118.35986328 C120.65537978 99.28519988 85.16583712 75.63687784 52 49 C51.08347656 48.26652344 50.16695312 47.53304687 49.22265625 46.77734375 C32.17019584 32.98012541 14.62000029 18.41330594 0 2 C0 1.34 0 0.68 0 0 Z " fill="#ECC648" transform="translate(2546,2111)"/>
<path d="M0 0 C2.36807075 3.85098884 2.83193001 8.05994362 3.515625 12.4453125 C3.79677996 14.1674412 4.07820341 15.88952608 4.35986328 17.61157227 C4.50490295 18.51207306 4.64994263 19.41257385 4.79937744 20.34036255 C14.29185792 83.49773072 14.29185792 83.49773072 50.75 133.8125 C85.16021082 157.97474046 130.3903646 162.96414806 171 169 C168.73060277 171.26939723 167.99086678 171.36839469 164.91870117 171.8503418 C163.64630585 172.05689644 163.64630585 172.05689644 162.34820557 172.2676239 C161.42247742 172.4100502 160.49674927 172.5524765 159.54296875 172.69921875 C157.55649659 173.0204461 155.57008964 173.34207695 153.58374023 173.6640625 C152.53918671 173.83067383 151.49463318 173.99728516 150.41842651 174.16894531 C85.8734971 183.95895474 85.8734971 183.95895474 35 222 C32.0021359 226.51576998 29.4204983 231.16028139 27 236 C26.6999707 236.59345215 26.39994141 237.1869043 26.09082031 237.79833984 C10.56300148 269.13337665 6.65171888 305.85041242 1 340 C-1.92973201 337.07026799 -1.8947062 333.62301358 -2.48046875 329.671875 C-2.75614524 327.91880647 -3.03220292 326.16579785 -3.30859375 324.4128418 C-3.45151855 323.4888559 -3.59444336 322.56487 -3.74169922 321.61288452 C-12.04132382 266.46599802 -12.04132382 266.46599802 -38 218 C-38.51691406 217.30777344 -39.03382813 216.61554688 -39.56640625 215.90234375 C-64.82084536 184.06529394 -117.36973455 179.03852844 -154.4128418 173.30859375 C-155.74356972 173.09877617 -155.74356972 173.09877617 -157.10118103 172.88471985 C-158.77833538 172.62098115 -160.4565921 172.3641332 -162.13600159 172.11515808 C-167.77571644 171.22428356 -167.77571644 171.22428356 -170 169 C-168.7123877 168.78907715 -167.42477539 168.5781543 -166.09814453 168.36083984 C-111.20815944 160.27349113 -111.20815944 160.27349113 -60 140 C-58.51113281 139.18789062 -58.51113281 139.18789062 -56.9921875 138.359375 C-32.87634255 124.20591614 -21.14300207 97.12375633 -14.25439453 71.19335938 C-8.69869844 49.288663 -4.64166412 26.85278548 -1.43847656 4.48754883 C-1 2 -1 2 0 0 Z " fill="#F6DA6E" transform="translate(1732,1046)"/>
</svg>
